# xmcd CD database file
#
# Track frame offsets:
#	150
#	19385
#	48222
#	70257
#	91104
#	115875
#	135900
#	163125
#
# Disc length: 2438 seconds
#
# Revision: 0
# Processed by: cddbd v1.5.2PL0 Copyright (c) Steve Scherf et al.
# Submitted via: jetAudio 7
#
DISCID=61098408
DTITLE=한영애 - 1992
DYEAR=1900
DGENRE=Blues
TTITLE0=트랙 1
TTITLE1=트랙 2
TTITLE2=트랙 3
TTITLE3=트랙 4
TTITLE4=트랙 5
TTITLE5=트랙 6
TTITLE6=트랙 7
TTITLE7=트랙 8
EXTD=
EXTT0=
EXTT1=
EXTT2=
EXTT3=
EXTT4=
EXTT5=
EXTT6=
EXTT7=
PLAYORDER=
